<?xml version="1.0" encoding="UTF-8"?>
<!DOCTYPE svg PUBLIC "-//W3C//DTD SVG 1.1//EN" "http://www.w3.org/Graphics/SVG/1.1/DTD/svg11.dtd">
<svg version="1.2" width="210mm" height="297mm" viewBox="0 0 21000 29700" preserveAspectRatio="xMidYMid" fill-rule="evenodd" stroke-width="28.222" stroke-linejoin="round" xmlns="http://www.w3.org/2000/svg" xmlns:ooo="http://xml.openoffice.org/svg/export" xmlns:xlink="http://www.w3.org/1999/xlink" xmlns:presentation="http://sun.com/xmlns/staroffice/presentation" xmlns:smil="http://www.w3.org/2001/SMIL20/" xmlns:anim="urn:oasis:names:tc:opendocument:xmlns:animation:1.0" xml:space="preserve">
 <defs class="ClipPathGroup">
  <clipPath id="presentation_clip_path" clipPathUnits="userSpaceOnUse">
   <rect x="0" y="0" width="21000" height="29700"/>
  </clipPath>
 </defs>
 <defs class="TextShapeIndex">
  <g ooo:slide="id1" ooo:id-list="id3 id4 id5 id6 id7 id8 id9 id10 id11 id12 id13 id14 id15 id16 id17 id18 id19 id20 id21 id22 id23 id24 id25"/>
 </defs>
 <defs class="EmbeddedBulletChars">
  <g id="bullet-char-template(57356)" transform="scale(0.00048828125,-0.00048828125)">
   <path d="M 580,1141 L 1163,571 580,0 -4,571 580,1141 Z"/>
  </g>
  <g id="bullet-char-template(57354)" transform="scale(0.00048828125,-0.00048828125)">
   <path d="M 8,1128 L 1137,1128 1137,0 8,0 8,1128 Z"/>
  </g>
  <g id="bullet-char-template(10146)" transform="scale(0.00048828125,-0.00048828125)">
   <path d="M 174,0 L 602,739 174,1481 1456,739 174,0 Z M 1358,739 L 309,1346 659,739 1358,739 Z"/>
  </g>
  <g id="bullet-char-template(10132)" transform="scale(0.00048828125,-0.00048828125)">
   <path d="M 2015,739 L 1276,0 717,0 1260,543 174,543 174,936 1260,936 717,1481 1274,1481 2015,739 Z"/>
  </g>
  <g id="bullet-char-template(10007)" transform="scale(0.00048828125,-0.00048828125)">
   <path d="M 0,-2 C -7,14 -16,27 -25,37 L 356,567 C 262,823 215,952 215,954 215,979 228,992 255,992 264,992 276,990 289,987 310,991 331,999 354,1012 L 381,999 492,748 772,1049 836,1024 860,1049 C 881,1039 901,1025 922,1006 886,937 835,863 770,784 769,783 710,716 594,584 L 774,223 C 774,196 753,168 711,139 L 727,119 C 717,90 699,76 672,76 641,76 570,178 457,381 L 164,-76 C 142,-110 111,-127 72,-127 30,-127 9,-110 8,-76 1,-67 -2,-52 -2,-32 -2,-23 -1,-13 0,-2 Z"/>
  </g>
  <g id="bullet-char-template(10004)" transform="scale(0.00048828125,-0.00048828125)">
   <path d="M 285,-33 C 182,-33 111,30 74,156 52,228 41,333 41,471 41,549 55,616 82,672 116,743 169,778 240,778 293,778 328,747 346,684 L 369,508 C 377,444 397,411 428,410 L 1163,1116 C 1174,1127 1196,1133 1229,1133 1271,1133 1292,1118 1292,1087 L 1292,965 C 1292,929 1282,901 1262,881 L 442,47 C 390,-6 338,-33 285,-33 Z"/>
  </g>
  <g id="bullet-char-template(9679)" transform="scale(0.00048828125,-0.00048828125)">
   <path d="M 813,0 C 632,0 489,54 383,161 276,268 223,411 223,592 223,773 276,916 383,1023 489,1130 632,1184 813,1184 992,1184 1136,1130 1245,1023 1353,916 1407,772 1407,592 1407,412 1353,268 1245,161 1136,54 992,0 813,0 Z"/>
  </g>
  <g id="bullet-char-template(8226)" transform="scale(0.00048828125,-0.00048828125)">
   <path d="M 346,457 C 273,457 209,483 155,535 101,586 74,649 74,723 74,796 101,859 155,911 209,963 273,989 346,989 419,989 480,963 531,910 582,859 608,796 608,723 608,648 583,586 532,535 482,483 420,457 346,457 Z"/>
  </g>
  <g id="bullet-char-template(8211)" transform="scale(0.00048828125,-0.00048828125)">
   <path d="M -4,459 L 1135,459 1135,606 -4,606 -4,459 Z"/>
  </g>
 </defs>
 <defs class="TextEmbeddedBitmaps"/>
 <g>
  <g id="id2" class="Master_Slide">
   <g id="bg-id2" class="Background"/>
   <g id="bo-id2" class="BackgroundObjects"/>
  </g>
 </g>
 <g class="SlideGroup">
  <g>
   <g id="id1" class="Slide" clip-path="url(#presentation_clip_path)">
    <g class="Page">
     <g class="com.sun.star.drawing.CustomShape">
      <g id="id3">
       <rect class="BoundingBox" stroke="none" fill="none" x="4699" y="4799" width="13803" height="13903"/>
       <path fill="none" stroke="rgb(52,101,164)" d="M 11600,18700 L 4700,18700 4700,4800 18500,4800 18500,18700 11600,18700 Z"/>
      </g>
     </g>
     <g class="com.sun.star.drawing.ConnectorShape">
      <g id="id4">
       <rect class="BoundingBox" stroke="none" fill="none" x="-902" y="13464" width="3" height="3"/>
       <path fill="none" stroke="rgb(52,101,164)" d="M -901,13465 L -901,13465 Z"/>
      </g>
     </g>
     <g class="com.sun.star.drawing.LineShape">
      <g id="id5">
       <rect class="BoundingBox" stroke="none" fill="none" x="10799" y="13099" width="3" height="3003"/>
       <path fill="none" stroke="rgb(0,0,0)" d="M 10800,13100 L 10800,16100"/>
      </g>
     </g>
     <g class="com.sun.star.drawing.LineShape">
      <g id="id6">
       <rect class="BoundingBox" stroke="none" fill="none" x="10799" y="16099" width="1803" height="3"/>
       <path fill="none" stroke="rgb(0,0,0)" d="M 10800,16100 L 12600,16100"/>
      </g>
     </g>
     <g class="com.sun.star.drawing.CustomShape">
      <g id="id7">
       <rect class="BoundingBox" stroke="none" fill="none" x="9999" y="18699" width="2603" height="3103"/>
       <path fill="none" stroke="rgb(52,101,164)" d="M 11300,21800 L 10000,21800 10000,18700 12600,18700 12600,21800 11300,21800 Z"/>
      </g>
     </g>
     <g class="com.sun.star.drawing.CustomShape">
      <g id="id8">
       <rect class="BoundingBox" stroke="none" fill="none" x="12599" y="18699" width="2503" height="3103"/>
       <path fill="none" stroke="rgb(52,101,164)" d="M 13850,21800 L 12600,21800 12600,18700 15100,18700 15100,21800 13850,21800 Z"/>
      </g>
     </g>
     <g class="com.sun.star.drawing.CustomShape">
      <g id="id9">
       <rect class="BoundingBox" stroke="none" fill="none" x="4699" y="13399" width="3403" height="5303"/>
       <path fill="none" stroke="rgb(52,101,164)" d="M 6400,18700 L 4700,18700 4700,13400 8100,13400 8100,18700 6400,18700 Z"/>
      </g>
     </g>
     <g class="com.sun.star.drawing.CustomShape">
      <g id="id10">
       <rect class="BoundingBox" stroke="none" fill="none" x="16299" y="14499" width="2203" height="4203"/>
       <path fill="none" stroke="rgb(52,101,164)" d="M 17400,18700 L 16300,18700 16300,14500 18500,14500 18500,18700 17400,18700 Z"/>
      </g>
     </g>
     <g class="com.sun.star.drawing.CustomShape">
      <g id="id11">
       <rect class="BoundingBox" stroke="none" fill="none" x="16299" y="10299" width="2203" height="4203"/>
       <path fill="none" stroke="rgb(52,101,164)" d="M 17400,14500 L 16300,14500 16300,10300 18500,10300 18500,14500 17400,14500 Z"/>
      </g>
     </g>
     <g class="com.sun.star.drawing.CustomShape">
      <g id="id12">
       <rect class="BoundingBox" stroke="none" fill="none" x="16299" y="4799" width="2203" height="5503"/>
       <path fill="none" stroke="rgb(52,101,164)" d="M 17400,10300 L 16300,10300 16300,4800 18500,4800 18500,10300 17400,10300 Z"/>
      </g>
     </g>
     <g class="com.sun.star.drawing.LineShape">
      <g id="id13">
       <rect class="BoundingBox" stroke="none" fill="none" x="11899" y="12999" width="1903" height="3"/>
       <path fill="none" stroke="rgb(0,0,0)" d="M 11900,13000 L 13800,13000"/>
      </g>
     </g>
     <g class="com.sun.star.drawing.LineShape">
      <g id="id14">
       <rect class="BoundingBox" stroke="none" fill="none" x="13799" y="12999" width="3" height="3103"/>
       <path fill="none" stroke="rgb(0,0,0)" d="M 13800,16100 L 13800,13000"/>
      </g>
     </g>
     <g class="com.sun.star.drawing.CustomShape">
      <g id="id15">
       <rect class="BoundingBox" stroke="none" fill="none" x="9999" y="21799" width="5103" height="1603"/>
       <path fill="none" stroke="rgb(52,101,164)" d="M 12550,23400 L 10000,23400 10000,21800 15100,21800 15100,23400 12550,23400 Z"/>
      </g>
     </g>
     <g class="com.sun.star.drawing.LineShape">
      <g id="id16">
       <rect class="BoundingBox" stroke="none" fill="none" x="9599" y="10299" width="4703" height="3"/>
       <path fill="none" stroke="rgb(0,0,0)" d="M 14300,10300 L 9600,10300"/>
      </g>
     </g>
     <g class="com.sun.star.drawing.LineShape">
      <g id="id17">
       <rect class="BoundingBox" stroke="none" fill="none" x="4699" y="10299" width="3803" height="3"/>
       <path fill="none" stroke="rgb(0,0,0)" d="M 4700,10300 L 8500,10300"/>
      </g>
     </g>
     <g class="com.sun.star.drawing.LineShape">
      <g id="id18">
       <rect class="BoundingBox" stroke="none" fill="none" x="8099" y="18699" width="3" height="3103"/>
       <path fill="none" stroke="rgb(0,0,0)" d="M 8100,18700 L 8100,21800"/>
      </g>
     </g>
     <g class="com.sun.star.drawing.LineShape">
      <g id="id19">
       <rect class="BoundingBox" stroke="none" fill="none" x="2799" y="18699" width="1903" height="3"/>
       <path fill="none" stroke="rgb(0,0,0)" d="M 4700,18700 L 2800,18700"/>
      </g>
     </g>
     <g class="com.sun.star.drawing.LineShape">
      <g id="id20">
       <rect class="BoundingBox" stroke="none" fill="none" x="2799" y="18699" width="3" height="6603"/>
       <path fill="none" stroke="rgb(0,0,0)" d="M 2800,18700 L 2800,25300"/>
      </g>
     </g>
     <g class="com.sun.star.drawing.LineShape">
      <g id="id21">
       <rect class="BoundingBox" stroke="none" fill="none" x="2799" y="25299" width="3303" height="3"/>
       <path fill="none" stroke="rgb(0,0,0)" d="M 2800,25300 L 6100,25300"/>
      </g>
     </g>
     <g class="com.sun.star.drawing.LineShape">
      <g id="id22">
       <rect class="BoundingBox" stroke="none" fill="none" x="6099" y="21799" width="3" height="3503"/>
       <path fill="none" stroke="rgb(0,0,0)" d="M 6100,25300 L 6100,21800"/>
      </g>
     </g>
     <g class="com.sun.star.drawing.LineShape">
      <g id="id23">
       <rect class="BoundingBox" stroke="none" fill="none" x="6099" y="21799" width="4003" height="3"/>
       <path fill="none" stroke="rgb(0,0,0)" d="M 6100,21800 L 10100,21800"/>
      </g>
     </g>
     <g class="com.sun.star.drawing.CustomShape">
      <g id="id24">
       <rect class="BoundingBox" stroke="none" fill="none" x="15099" y="18699" width="3403" height="4703"/>
       <path fill="none" stroke="rgb(52,101,164)" d="M 16800,23400 L 15100,23400 15100,18700 18500,18700 18500,23400 16800,23400 Z"/>
      </g>
     </g>
     <g class="com.sun.star.drawing.LineShape">
      <g id="id25">
       <rect class="BoundingBox" stroke="none" fill="none" x="15999" y="18699" width="3" height="2703"/>
       <path fill="none" stroke="rgb(0,0,0)" d="M 16000,18700 L 16000,21400"/>
      </g>
     </g>
    </g>
   </g>
  </g>
 </g>
</svg>